<?xml version="1.0" standalone="no"?><!DOCTYPE svg PUBLIC "-//W3C//DTD SVG 1.1//EN" "http://www.w3.org/Graphics/SVG/1.1/DTD/svg11.dtd"><svg t="1671008633565" class="icon" viewBox="0 0 1024 1024" version="1.1" xmlns="http://www.w3.org/2000/svg" p-id="2714" xmlns:xlink="http://www.w3.org/1999/xlink" width="256" height="256"><path d="M368.384 641.088H281.376L243.2 724.832c-5.728 12.064-8.576 21.568-8.576 28.512 0 13.28 3.392 22.464 23.616 27.616v22.336H96v-22.336c12.064-2.432 31.968-6.656 38.304-12.672 6.336-6.048 13.568-17.824 21.696-35.296l204.032-451.616c7.264-15.072 10.88-3.968 10.88-13.024 0-13.888-2.528-15.136-20-21.184V224h162.176v23.168c-17.792 5.12-22.432 5.344-22.432 18.016 0 8.736 2.88-4.48 8.608 6.72l53.888 115.008a287.68 287.68 0 0 0-78.848 45.632l-44.224-99.2-102.368 238.24h52.864a287.2 287.2 0 0 0-12.192 69.504z" fill="#5D6D7E" p-id="2715"></path><path d="M632.64 864.96a195.84 195.84 0 0 1-69.248-28.672l-33.248 33.28a16 16 0 0 1-22.624 0l-33.088-33.088a16 16 0 0 1 0-22.624l33.28-33.28a195.84 195.84 0 0 1-28.704-69.184H432a16 16 0 0 1-16-16v-46.784a16 16 0 0 1 16-16h47.04a195.84 195.84 0 0 1 28.672-69.216l-33.28-33.248a16 16 0 0 1 0-22.624l33.088-33.088a16 16 0 0 1 22.624 0l33.28 33.28a195.84 195.84 0 0 1 69.184-28.704V432a16 16 0 0 1 16-16h46.784a16 16 0 0 1 16 16v47.04a195.84 195.84 0 0 1 69.216 28.672l33.248-33.28a16 16 0 0 1 22.624 0l33.088 33.088a16 16 0 0 1 0 22.624l-33.28 33.28a195.84 195.84 0 0 1 28.704 69.184H912a16 16 0 0 1 16 16v46.784a16 16 0 0 1-16 16h-47.04a195.84 195.84 0 0 1-28.672 69.216l33.28 33.248a16 16 0 0 1 0 22.624l-33.088 33.088a16 16 0 0 1-22.624 0l-33.28-33.28a195.84 195.84 0 0 1-69.184 28.704V912a16 16 0 0 1-16 16h-46.784a16 16 0 0 1-16-16v-47.04zM672 790.176a118.144 118.144 0 1 0 0-236.288 118.144 118.144 0 0 0 0 236.288z" fill="#27A2DF" p-id="2716"></path><path d="M827.936 349.216c-17.696 15.04-34.752 25.664-51.136 31.872a147.744 147.744 0 0 1-52.736 9.28c-30.976 0-54.784-7.552-71.424-22.72-16.64-15.136-24.96-34.464-24.96-58.016 0-13.824 3.104-26.432 9.408-37.856a78.08 78.08 0 0 1 24.704-27.52 116.16 116.16 0 0 1 34.4-15.648c9.376-2.464 23.552-4.864 42.496-7.168 38.592-4.608 67.04-10.112 85.28-16.48 0.16-6.528 0.256-10.72 0.256-12.48 0-19.488-4.512-33.184-13.568-41.152-12.192-10.816-30.368-16.224-54.432-16.224-22.496 0-39.104 3.936-49.824 11.84-10.688 7.872-18.624 21.824-23.744 41.824l-46.752-6.4c4.224-20 11.232-36.16 20.96-48.448 9.76-12.32 23.84-21.76 42.24-28.416 18.432-6.656 39.776-9.984 64-9.984 24.096 0 43.68 2.848 58.72 8.512 15.04 5.664 26.112 12.8 33.216 21.376 7.072 8.608 12.032 19.456 14.88 32.544 1.6 8.16 2.368 22.848 2.368 44.096v63.744c0 44.48 1.024 72.576 3.072 84.352 2.016 11.776 6.08 23.04 12.064 33.856h-49.92a101.376 101.376 0 0 1-9.568-34.784z m-3.968-106.784c-17.376 7.072-43.392 13.12-78.08 18.048-19.68 2.848-33.6 6.016-41.728 9.568a40.832 40.832 0 0 0-25.504 38.24c0 12.768 4.8 23.36 14.464 31.872 9.664 8.512 23.776 12.768 42.368 12.768 18.432 0 34.816-4.032 49.152-12.096 14.336-8.064 24.896-19.072 31.616-33.056 5.12-10.816 7.68-26.752 7.68-47.808v-17.536z" fill="#C49F74" p-id="2717"></path></svg>